<svg width="285.440002" height="30.909912" viewBox="0 0 285.44 30.9099" fill="none" xmlns="http://www.w3.org/2000/svg" xmlns:xlink="http://www.w3.org/1999/xlink">
	<desc>
			Created with Pixso.
	</desc>
	<defs/>
	<path id="Vector" d="M0 27.96C6.38 27.96 6.40997 23.6799 6.40997 17.3401L6.40997 8.65991L9.15997 8.65991L9.15997 27.52L14.34 27.52L14.34 5.28003L1.65997 5.28003L1.65997 17.3301C1.65997 21.8899 1.65997 23.8201 0 23.8201L0 27.95L0 27.96ZM26.45 27.52L26.45 24.1499L20.89 24.1499L20.89 16.9099L26.26 16.9099L26.26 13.54L20.89 13.54L20.89 8.66992L26.45 8.66992L26.45 5.30005L15.71 5.30005L15.71 27.53L26.45 27.53L26.45 27.52ZM32.51 27.52L32.51 16.8999L35.26 16.8999L35.26 27.52L40.44 27.52L40.44 5.28003L35.26 5.28003L35.26 13.52L32.51 13.52L32.51 5.28003L27.33 5.28003L27.33 27.51L32.51 27.51L32.51 27.52ZM49.78 18.8701L49.75 22.6499C49.75 23.5601 49.47 24.3999 48.35 24.3999C47.29 24.3999 47.01 23.5601 47.01 22.6499L47.01 10.1599C47.01 9.25 47.29 8.40991 48.35 8.40991C49.47 8.40991 49.75 9.25 49.75 10.1599L49.75 13.22L54.93 13.22L54.93 10.78C54.93 5.96997 52.12 4.8501 48.34 4.8501C44.9 4.8501 41.81 6.26001 41.81 11.3501L41.81 21.47C41.81 26.5601 44.9 27.97 48.34 27.97C52.71 27.97 54.93 25.97 54.93 21.8101L54.93 18.8799L49.78 18.8799L49.78 18.8701ZM58.83 8.65991L58.83 27.52L64.01 27.52L64.01 8.6499L67.63 8.6499L67.63 5.28003L55.2 5.28003L55.2 8.6499L58.82 8.6499L58.83 8.65991ZM73.63 27.52L73.63 18.9299L75.54 18.9299C78.6 18.9299 81.57 17.46 81.57 14.1201L81.57 10.0601C81.57 6.21997 78.92 5.28003 74.79 5.28003L68.45 5.28003L68.45 27.51L73.63 27.51L73.63 27.52ZM73.63 8.46997L74.44 8.46997C76.25 8.46997 76.38 9.5 76.38 12.1201C76.38 14.74 76.26 15.74 74.44 15.74L73.63 15.74L73.63 8.45996L73.63 8.46997ZM96.05 11.3401C96.05 6.25 92.93 4.84009 89.49 4.84009C86.05 4.84009 82.93 6.25 82.93 11.3401L82.93 21.46C82.93 26.55 86.05 27.96 89.49 27.96C92.93 27.96 96.05 26.55 96.05 21.46L96.05 11.3401ZM88.12 10.1499C88.12 9.23999 88.4 8.3999 89.5 8.3999C90.6 8.3999 90.87 9.23999 90.87 10.1499L90.87 22.6399C90.87 23.55 90.59 24.3899 89.5 24.3899C88.41 24.3899 88.12 23.55 88.12 22.6399L88.12 10.1499ZM99.67 0C99.67 2.62012 101.61 4.1499 104.07 4.1499C106.75 4.1499 108.82 2.84009 108.82 0L107.01 0C106.76 1.28003 105.57 1.71997 104.39 1.71997C103.14 1.71997 101.67 1.46997 101.42 0L99.67 0ZM111.66 27.51L111.66 5.28003L104.54 5.28003L101.73 21.0801L101.67 21.0801L101.67 5.28003L97.42 5.28003L97.42 27.51L104.01 27.51L107.35 9.31006L107.41 9.31006L107.41 27.51L111.66 27.51ZM118.22 27.51L118.22 16.24L118.28 16.24L121.4 27.51L126.52 27.51L123.02 15.0801L126.49 5.27002L121.56 5.27002L118.28 15.3601L118.22 15.3601L118.22 5.27002L113.04 5.27002L113.04 27.5L118.22 27.5L118.22 27.51ZM140.08 11.3401C140.08 6.25 136.96 4.84009 133.52 4.84009C130.08 4.84009 126.96 6.25 126.96 11.3401L126.96 21.46C126.96 26.55 130.08 27.96 133.52 27.96C136.96 27.96 140.08 26.55 140.08 21.46L140.08 11.3401ZM132.15 10.1499C132.15 9.23999 132.43 8.3999 133.53 8.3999C134.63 8.3999 134.91 9.23999 134.91 10.1499L134.91 22.6399C134.91 23.55 134.63 24.3899 133.53 24.3899C132.43 24.3899 132.15 23.55 132.15 22.6399L132.15 10.1499ZM145.58 8.78003L145.64 8.78003L148.64 27.52L153.2 27.52L156.2 8.78003L156.26 8.78003L156.26 27.52L160.94 27.52L160.94 5.28003L153.48 5.28003L151.29 21.0801L151.23 21.0801L149.04 5.28003L141.42 5.28003L141.42 27.51L145.57 27.51L145.57 8.78003L145.58 8.78003ZM167.47 27.52L167.47 8.6499L170.22 8.6499L170.22 27.51L175.4 27.51L175.4 5.28003L162.28 5.28003L162.28 27.51L167.47 27.51L167.47 27.52ZM176.02 27.96C182.39 27.96 182.43 23.6799 182.43 17.3401L182.43 8.65991L185.18 8.65991L185.18 27.52L190.36 27.52L190.36 5.28003L177.68 5.28003L177.68 17.3301C177.68 21.8899 177.68 23.8201 176.02 23.8201L176.02 27.95L176.02 27.96ZM202.47 27.52L202.47 24.1499L196.91 24.1499L196.91 16.9099L202.28 16.9099L202.28 13.54L196.91 13.54L196.91 8.66992L202.47 8.66992L202.47 5.30005L191.73 5.30005L191.73 27.53L202.47 27.53L202.47 27.52ZM208.53 27.52L208.53 16.25L208.59 16.25L211.71 27.52L216.83 27.52L213.33 15.0901L216.8 5.28003L211.87 5.28003L208.59 15.3701L208.53 15.3701L208.53 5.28003L203.35 5.28003L203.35 27.51L208.53 27.51L208.53 27.52ZM220.36 8.65991L220.36 27.52L225.54 27.52L225.54 8.6499L229.16 8.6499L229.16 5.28003L216.73 5.28003L216.73 8.6499L220.35 8.6499L220.36 8.65991ZM231.04 5.29004L227.26 27.52L231.63 27.52L232.47 22.0601L235.28 22.0601L235.87 27.52L241.02 27.52L238.15 5.29004L231.03 5.29004L231.04 5.29004ZM233.04 18.6899L233.95 8.79004L234.01 8.79004L234.92 18.6899L233.05 18.6899L233.04 18.6899ZM242.16 27.53L251.18 27.53L251.18 30.9099L255.96 30.9099L255.96 24.1599L255.21 24.1599L255.21 5.28003L250.03 5.28003L250.03 24.1399L247.35 24.1399L247.35 5.28003L242.17 5.28003L242.17 27.51L242.16 27.53ZM270.89 27.53L270.89 5.28003L263.77 5.28003L260.96 21.0801L260.9 21.0801L260.9 5.28003L256.65 5.28003L256.65 27.51L263.24 27.51L266.58 9.31006L266.64 9.31006L266.64 27.51L270.89 27.51L270.89 27.53ZM280.26 27.53L285.44 27.53L285.44 5.28003L280.23 5.28003C275.29 5.28003 272.36 5.78003 272.36 10.46C272.36 13.24 273.52 15.05 276.33 15.52L276.33 15.5801C273.83 15.6399 272.36 16.5801 272.36 19.76L272.36 24.4099C272.36 25.28 272.2 26.6001 271.58 27.5L276.8 27.5C277.42 26.5901 277.55 25.28 277.55 24.4099L277.55 19.7C277.55 18.1399 278.49 17.3601 279.42 17.3601L280.26 17.3601L280.26 27.51L280.26 27.53ZM280.26 8.47998L280.26 14.1899C277.92 14.1899 277.54 13.4099 277.54 11.3201C277.54 9.22998 277.88 8.47998 280.26 8.47998Z" fill-rule="evenodd" fill="#303030"/>
</svg>
