<svg width="44.311157" height="44.828613" viewBox="0 0 44.3112 44.8286" fill="none" xmlns="http://www.w3.org/2000/svg" xmlns:xlink="http://www.w3.org/1999/xlink">
	<desc>
			Created with Pixso.
	</desc>
	<defs/>
	<path id="Vector" d="M44.2762 44.8286L0.0383911 44.8286C0.0279541 44.6812 0.00695801 44.5337 0.00695801 44.3899C0.00695801 34.3794 0.00695801 24.3726 0 14.3623C0 14.0569 0.104736 13.8884 0.356201 13.7271C7.46613 9.20264 14.5725 4.67139 21.6719 0.133057C21.9513 -0.0461426 22.1364 -0.0424805 22.4158 0.133057C29.5955 4.67822 36.7822 9.21313 43.9725 13.741C44.2099 13.8918 44.3112 14.0427 44.3112 14.3342C44.3042 24.355 44.3042 34.3794 44.3042 44.4004C44.3042 44.5371 44.2902 44.6741 44.2833 44.8286L44.2762 44.8286ZM22.7231 22.8318C22.7161 22.9336 22.7056 22.9897 22.7056 23.0459C22.6986 27.177 22.6951 31.3118 22.6812 35.4429C22.6812 35.7026 22.7964 35.8115 22.9919 35.9238C25.6843 37.4751 28.3768 39.03 31.0692 40.585C31.1704 40.6448 31.2822 40.6902 31.4079 40.75L31.4079 22.8352L22.7266 22.8352L22.7231 22.8318ZM2.75525 22.8318C2.74481 22.9897 2.73083 23.1125 2.73083 23.2354C2.72034 27.2859 2.71686 31.3364 2.6994 35.3867C2.6994 35.6746 2.81116 35.8044 3.03815 35.9343C5.70959 37.4683 8.37756 39.0125 11.0455 40.5535C11.1607 40.6201 11.283 40.6763 11.4331 40.7534L11.4331 22.8352L2.75525 22.8352L2.75525 22.8318ZM21.3646 21.3892L21.3646 3.58667C21.2075 3.67798 21.0887 3.74121 20.9735 3.81494C18.3964 5.45752 15.8262 7.10718 13.242 8.73584C12.9557 8.91821 12.8649 9.11499 12.8649 9.44482C12.8754 13.2566 12.8719 17.0684 12.8719 20.8801L12.8719 21.3892L21.3611 21.3892L21.3646 21.3892ZM32.1692 21.9648L42.2264 21.9648L42.2264 21.5647C42.2264 19.5464 42.2194 17.5283 42.2334 15.51C42.2334 15.1975 42.1216 15.0396 41.8702 14.8816C38.7623 12.9336 35.6578 10.9751 32.5533 9.02002C32.4415 8.94995 32.3193 8.88672 32.1656 8.79907L32.1656 21.9648L32.1692 21.9648ZM11.716 21.6313L11.716 8.98511C11.6042 9.04126 11.5274 9.07275 11.4611 9.11499C8.41943 11.0593 5.37781 13.0073 2.3327 14.9448C2.10571 15.0889 2.0708 15.2644 2.0708 15.5029C2.07782 17.3948 2.0708 19.2832 2.07428 21.175C2.07428 21.3225 2.09174 21.47 2.10223 21.6279L11.716 21.6279L11.716 21.6313ZM31.9213 42.8103C31.799 42.7156 31.7606 42.6804 31.7152 42.6523C28.5758 40.7852 25.4329 38.9143 22.2866 37.061C22.1608 36.9873 21.9094 37.0188 21.7732 37.0996C18.749 38.9177 15.7284 40.7463 12.7112 42.5752C12.6274 42.6243 12.5541 42.6946 12.4039 42.8103L31.9213 42.8103ZM2.09875 42.7927L11.8417 42.7927C11.8487 42.7681 11.8557 42.7437 11.8627 42.719C8.62549 40.7957 5.38831 38.8757 2.09875 36.9207L2.09875 42.7927ZM42.2089 36.9277C38.8705 38.8896 35.6019 40.8132 32.2355 42.7927L42.2089 42.7927L42.2089 36.9277Z" fill-rule="nonzero" fill="#303030"/>
</svg>
