<svg width="18.000000" height="16.000000" viewBox="0 0 18 16" fill="none" xmlns="http://www.w3.org/2000/svg" xmlns:xlink="http://www.w3.org/1999/xlink">
	<desc>
			Created with Pixso.
	</desc>
	<defs/>
	<path id="Vector" d="M17.5248 0.299316C17.1482 -0.00585938 16.6307 -0.0844727 16.1771 0.0947266L0.819641 6.15649C0.144043 6.42847 -0.178162 7.18433 0.0999146 7.84473C0.243713 8.18628 0.530029 8.45142 0.886597 8.57324L4.19965 9.69922L5.99518 15.5032C5.99878 15.5151 6.00983 15.5222 6.01453 15.5337C6.03308 15.5798 6.06024 15.6226 6.09448 15.6592C6.10724 15.6741 6.12115 15.688 6.13605 15.7007C6.18079 15.7371 6.23273 15.7639 6.28857 15.7795C6.29712 15.782 6.3028 15.7893 6.31152 15.7913L6.31653 15.791L6.31903 15.7922C6.34766 15.7983 6.37683 15.8013 6.40607 15.801C6.44434 15.7998 6.48224 15.7935 6.51868 15.782C6.52576 15.78 6.53284 15.7805 6.53979 15.7783C6.60199 15.7568 6.65814 15.7217 6.70392 15.6753C6.70929 15.6702 6.71741 15.6692 6.72253 15.6636L9.30566 12.877L13.0741 15.73C13.3031 15.905 13.5854 16 13.876 16C14.5046 16 15.0472 15.5693 15.1768 14.968L17.9734 1.54492C18.0703 1.08057 17.8978 0.601807 17.5248 0.299316ZM6.93268 10.8L6.32648 13.6802L5.06232 9.59253L11.3322 6.40039L7.04901 10.5881C6.98981 10.646 6.94934 10.7197 6.93268 10.8ZM14.3373 14.7996C14.3044 14.9536 14.1918 15.0801 14.0401 15.1333C13.8918 15.1892 13.7244 15.1643 13.5998 15.0679L9.51666 11.9768C9.3399 11.843 9.08759 11.8647 8.93744 12.0269L7.14111 13.9644L7.74628 11.0923L13.9078 5.06738C14.0753 4.90381 14.0756 4.63867 13.9084 4.4751C13.7762 4.34546 13.5733 4.31494 13.4073 4.39941L4.52441 8.92212L1.16699 7.78101C0.984009 7.72217 0.859558 7.55615 0.8573 7.36768C0.84845 7.17798 0.963257 7.00366 1.14355 6.93311L16.4985 0.872314C16.6589 0.805664 16.8441 0.83374 16.9765 0.944336C17.1083 1.04834 17.1689 1.21606 17.1331 1.37817L14.3373 14.7996Z" fill-rule="nonzero" fill="#FFFFFF"/>
</svg>
