<svg width="24.023865" height="14.500000" viewBox="0 0 24.0239 14.5" fill="none" xmlns="http://www.w3.org/2000/svg" xmlns:xlink="http://www.w3.org/1999/xlink">
	<desc>
			Created with Pixso.
	</desc>
	<defs/>
	<path id="Vector" d="M22.57 14.5L20.055 14.5C19.162 14.5 18.702 13.9951 17.941 13.158C17.634 12.822 17.258 12.408 16.757 11.9131C15.753 10.958 15.005 10.45 14.602 10.45C14.544 10.45 14.503 10.4519 14.475 10.4541C14.427 10.667 14.432 11.252 14.439 11.918C14.442 12.2371 14.445 12.606 14.445 13.0339C14.445 14.25 13.526 14.5 12.147 14.5C9.18799 14.5 6.16803 12.7209 4.06702 9.74097C1.02502 5.53003 0 2.11597 0 1.20605C0 0.439941 0.495972 0.000976562 1.362 0.000976562L3.87799 0.000976562C4.92902 0.000976562 5.258 0.669922 5.48401 1.2959C6.71399 4.84497 8.51898 7.27588 9.11401 7.5791C9.12598 7.49902 9.13702 7.36792 9.13702 7.15698L9.13702 3.49512C9.09003 2.64209 8.80402 2.29199 8.552 1.98193C8.35797 1.74512 8.13898 1.47705 8.13898 1.07007C8.13898 0.554932 8.57599 0 9.28003 0L13.234 0C13.786 0 14.443 0.246094 14.443 1.41504L14.443 6.33789C14.443 6.40796 14.447 6.46289 14.453 6.50488C14.574 6.44409 14.8 6.2959 15.168 5.93188C16.882 4.03906 18.136 1.04297 18.148 1.01294C18.431 0.349121 18.968 0 19.704 0L22.219 0C22.738 0 23.114 0.1521 23.336 0.450928C23.483 0.647949 23.624 1 23.458 1.55811C23.457 1.56104 23.456 1.56396 23.455 1.56812C23.099 3.03003 20.529 6.71704 20.008 7.40088L20.01 7.4021C19.965 7.4729 19.847 7.66089 19.846 7.71094C19.846 7.71094 19.852 7.771 19.98 7.93311C19.982 7.93604 19.985 7.93994 19.988 7.94312C20.042 8.00806 20.197 8.16211 20.412 8.37891C22.862 10.842 24.4 12.708 23.944 13.804C23.81 14.1221 23.465 14.5 22.57 14.5ZM14.603 9.44995C15.106 9.44995 15.837 9.65796 17.455 11.1951C17.978 11.7119 18.366 12.1379 18.682 12.4851C19.414 13.2891 19.623 13.5 20.057 13.5L22.572 13.5C22.879 13.5 23.003 13.439 23.022 13.417C23.093 13.259 23.071 12.4709 19.703 9.08398C19.44 8.81909 19.257 8.62793 19.193 8.55005C18.636 7.84106 18.85 7.37012 19.163 6.87109C19.187 6.83105 19.218 6.7959 19.252 6.76489C19.649 6.20605 22.23 2.49902 22.489 1.30908C22.494 1.28589 22.501 1.26294 22.509 1.24097C22.544 1.11206 22.533 1.05298 22.531 1.04199C22.522 1.04199 22.441 1 22.219 1L19.704 1C19.319 1 19.173 1.15991 19.07 1.3999C19.018 1.5249 17.737 4.58301 15.889 6.62305C15.336 7.1709 14.642 7.74512 14.017 7.48193C13.755 7.37305 13.443 7.08594 13.443 6.33691L13.443 1.41504C13.443 1.10205 13.389 1.02295 13.385 1.01807C13.383 1.01807 13.343 1 13.234 1L9.27899 1C9.16998 1 9.14001 1.05688 9.138 1.07202C9.138 1.12012 9.229 1.23193 9.32599 1.3501C9.62201 1.71289 10.07 2.26196 10.137 3.46704L10.138 7.15601C10.138 7.62695 10.138 8.60596 9.17297 8.60596C7.74902 8.60596 5.53003 4.48096 4.54102 1.62988C4.32397 1.03003 4.20898 1.00098 3.87799 1.00098L1.362 1.00098C1 1.00098 1 1.05688 1 1.20605C1 1.60693 1.716 4.77905 4.88098 9.15991C6.79797 11.8799 9.51398 13.5 12.148 13.5C13.446 13.5 13.446 13.3049 13.446 13.0339C13.446 12.6101 13.443 12.2429 13.44 11.927C13.427 10.571 13.422 10.063 13.761 9.72095C13.998 9.48291 14.306 9.44995 14.603 9.44995Z" fill-rule="nonzero" fill="#FFFFFF"/>
</svg>
