<svg width="24.000000" height="24.000000" viewBox="0 0 24 24" fill="none" xmlns="http://www.w3.org/2000/svg" xmlns:xlink="http://www.w3.org/1999/xlink">
	<desc>
			Created with Pixso.
	</desc>
	<defs>
		<clipPath id="clip1_472">
			<rect id="yandexbrowser 1" width="24.000000" height="24.000000" fill="white"/>
		</clipPath>
	</defs>
	<g clip-path="url(#clip1_472)">
		<path id="Vector" d="M21 12C21 7.02954 16.9705 3 12 3C7.02942 3 3 7.02954 3 12C3 16.9705 7.02942 21 12 21C16.9705 21 21 16.9705 21 12Z" stroke="#FFFFFF"/>
		<path id="Vector" d="M8.26202 7.42358L7.44531 8.22461Q7.26544 8.40112 7.17554 8.61523Q7.08563 8.82935 7.08563 9.0813Q7.08557 9.33325 7.17554 9.54736Q7.26544 9.76147 7.44525 9.93799L10.2224 12.6621L10.2224 15.8Q10.2224 16.3999 10.5223 16.7Q10.8223 17 11.4224 17L12.5815 17Q13.1816 17 13.4816 16.7Q13.7816 16.3999 13.7816 15.8L13.7816 12.658L16.5547 9.93799Q16.7346 9.76147 16.8245 9.54736Q16.9144 9.33325 16.9144 9.0813Q16.9144 8.82935 16.8245 8.61523Q16.7346 8.40112 16.5547 8.22461L15.7379 7.42358Q15.3178 7.01147 14.8976 7.01147Q14.4775 7.01147 14.0574 7.42358L11.9999 9.44165L9.94269 7.42358Q9.52252 7.01147 9.10236 7.01147Q8.68219 7.01123 8.26202 7.42358ZM9.24243 8.13745C9.16461 8.06104 9.0401 8.06104 8.96228 8.13745L8.14557 8.93848C8.06561 9.01685 8.06561 9.14575 8.14557 9.22412L11.1624 12.1836C11.2007 12.2212 11.2224 12.2725 11.2224 12.3262L11.2224 15.8C11.2224 15.9104 11.3119 16 11.4224 16L12.5815 16C12.692 16 12.7816 15.9104 12.7816 15.8L12.7816 12.3223C12.7816 12.2686 12.8032 12.217 12.8415 12.1794L15.8544 9.22412C15.9344 9.14575 15.9344 9.01685 15.8544 8.93848L15.0377 8.13745C14.9599 8.06104 14.8354 8.06104 14.7576 8.13745L12.14 10.7051C12.0621 10.7812 11.9376 10.7812 11.8598 10.7051L9.24243 8.13745Z" fill-rule="evenodd" fill="#FFFFFF"/>
	</g>
</svg>
