<svg width="24.000000" height="24.000000" viewBox="0 0 24 24" fill="none" xmlns="http://www.w3.org/2000/svg" xmlns:xlink="http://www.w3.org/1999/xlink">
	<desc>
			Created with Pixso.
	</desc>
	<defs>
		<clipPath id="clip1_469">
			<rect id="youtube" width="24.000000" height="24.000000" fill="white"/>
		</clipPath>
	</defs>
	<g clip-path="url(#clip1_469)">
		<path id="Vector" d="M11.2114 15.4065L15.3085 13.0391Q15.6083 12.8657 15.7582 12.606Q15.9081 12.3462 15.9081 12Q15.9081 11.6538 15.7582 11.394Q15.6083 11.1343 15.3085 10.9609L11.2114 8.59351Q10.9113 8.42017 10.6113 8.41992Q10.3112 8.41992 10.0112 8.59302Q9.71106 8.76636 9.56097 9.02612Q9.41095 9.28589 9.41095 9.63257L9.41095 14.3674Q9.41095 14.7139 9.56097 14.9739Q9.71106 15.2336 10.0112 15.4067Q10.3112 15.5801 10.6113 15.5798Q10.9113 15.5798 11.2114 15.4065ZM10.4109 14.3674C10.4109 14.5215 10.5777 14.6177 10.711 14.5405L11.3859 14.1506L11.4109 14.1362L14.1085 12.5774L14.1333 12.563L14.8082 12.1731C14.9414 12.0962 14.9414 11.9038 14.8082 11.8269L14.1333 11.4368L14.1085 11.4224L11.4109 9.86377L11.3859 9.84937L10.711 9.45923C10.5777 9.38232 10.4109 9.47852 10.4109 9.63257L10.4109 14.3674Z" fill-rule="evenodd" fill="#FFFFFF"/>
		<rect id="Rectangle 2" x="1.500000" y="4.500000" rx="4.000000" width="21.000000" height="15.000000" stroke="#FFFFFF"/>
	</g>
</svg>
